<?xml version="1.0" encoding="utf-8"?>
<!-- Generator: Adobe Illustrator 14.0.0, SVG Export Plug-In . SVG Version: 6.00 Build 43363)  -->
<!DOCTYPE svg PUBLIC "-//W3C//DTD SVG 1.1//EN" "http://www.w3.org/Graphics/SVG/1.1/DTD/svg11.dtd">
<svg version="1.1" id="Layer_1" xmlns="http://www.w3.org/2000/svg" xmlns:xlink="http://www.w3.org/1999/xlink" x="0px" y="0px"
	 width="18px" height="18px" viewBox="0 0 18 18" enable-background="new 0 0 18 18" xml:space="preserve">
<line fill="none" stroke="#000000" x1="17" y1="12" x2="0" y2="12"/>
<polygon fill="#010101" points="14.758,13.5 16.758,12.001 14.758,10.499 14,9.934 14,9 15.999,10.499 18,12.001 15.999,13.5 14,15 
	14,14.068 "/>
<g enable-background="new    ">
	<path d="M4,7.077c0-0.962,0.246-1.716,0.739-2.261C5.23,4.271,5.869,4,6.648,4c0.51,0,0.97,0.128,1.379,0.384
		c0.41,0.255,0.723,0.612,0.938,1.07S9.289,6.43,9.289,7.01c0,0.588-0.114,1.115-0.34,1.579C8.723,9.053,8.402,9.402,7.986,9.643
		C7.573,9.88,7.125,10,6.645,10C6.124,10,5.66,9.867,5.249,9.604C4.839,9.341,4.527,8.98,4.316,8.525C4.104,8.068,4,7.586,4,7.077z
		 M4.753,7.088c0,0.699,0.181,1.249,0.538,1.651C5.65,9.141,6.1,9.343,6.641,9.343c0.551,0,1.002-0.204,1.359-0.608
		c0.355-0.405,0.534-0.982,0.534-1.729c0-0.472-0.076-0.885-0.229-1.236C8.152,5.418,7.932,5.145,7.639,4.952
		C7.346,4.759,7.016,4.661,6.65,4.661c-0.518,0-0.963,0.187-1.336,0.558C4.941,5.594,4.753,6.215,4.753,7.088z"/>
	<path d="M10.27,9.9V4.104H14v0.683h-2.999v1.795h2.597v0.685h-2.597v2.633L10.27,9.9L10.27,9.9z"/>
</g>
</svg>
