<?xml version="1.0" encoding="UTF-8" standalone="no"?>
<!-- Generator: Adobe Illustrator 14.0.0, SVG Export Plug-In . SVG Version: 6.00 Build 43363)  -->

<svg
   xmlns:dc="http://purl.org/dc/elements/1.1/"
   xmlns:cc="http://creativecommons.org/ns#"
   xmlns:rdf="http://www.w3.org/1999/02/22-rdf-syntax-ns#"
   xmlns:svg="http://www.w3.org/2000/svg"
   xmlns="http://www.w3.org/2000/svg"
   xmlns:sodipodi="http://sodipodi.sourceforge.net/DTD/sodipodi-0.dtd"
   xmlns:inkscape="http://www.inkscape.org/namespaces/inkscape"
   version="1.1"
   id="Layer_1"
   x="0px"
   y="0px"
   width="50px"
   height="50px"
   viewBox="0 0 50 50"
   enable-background="new 0 0 50 50"
   xml:space="preserve"
   inkscape:version="0.91 r13725"
   sodipodi:docname="Activity.svg"><metadata
     id="metadata29"><rdf:RDF><cc:Work
         rdf:about=""><dc:format>image/svg+xml</dc:format><dc:type
           rdf:resource="http://purl.org/dc/dcmitype/StillImage" /></cc:Work></rdf:RDF></metadata><defs
     id="defs27" /><sodipodi:namedview
     pagecolor="#ffffff"
     bordercolor="#666666"
     borderopacity="1"
     objecttolerance="10"
     gridtolerance="10"
     guidetolerance="10"
     inkscape:pageopacity="0"
     inkscape:pageshadow="2"
     inkscape:window-width="1280"
     inkscape:window-height="646"
     id="namedview25"
     showgrid="false"
     inkscape:zoom="4.72"
     inkscape:cx="25"
     inkscape:cy="25"
     inkscape:window-x="2102"
     inkscape:window-y="591"
     inkscape:window-maximized="0"
     inkscape:current-layer="Layer_1" /><g
     id="g3"><linearGradient
       id="SVGID_1_"
       gradientUnits="userSpaceOnUse"
       x1="1512.7188"
       y1="-1759.5762"
       x2="1558.1562"
       y2="-1759.5762"
       gradientTransform="matrix(1 0 0 -1 -1510.5 -1735)"><stop
         offset="0"
         style="stop-color:#68A7DB"
         id="stop6" /><stop
         offset="1"
         style="stop-color:#3E86C7"
         id="stop8" /></linearGradient><path
       fill="url(#SVGID_1_)"
       d="M2.219,34.563c0,4.971,4.029,9,9,9h27.438c4.971,0,9-4.029,9-9V14.589c0-4.971-4.029-9-9-9H11.219   c-4.971,0-9,4.029-9,9V34.563z"
       id="path10" /><path
       fill="none"
       stroke="#4480C2"
       stroke-width="3"
       d="M2.219,34.563c0,4.971,4.029,9,9,9h27.438c4.971,0,9-4.029,9-9V14.589   c0-4.971-4.029-9-9-9H11.219c-4.971,0-9,4.029-9,9V34.563z"
       id="path12" /></g><g
     opacity="0.2"
     enable-background="new    "
     id="g14"><linearGradient
       id="SVGID_2_"
       gradientUnits="userSpaceOnUse"
       x1="1512.7178"
       y1="-1759.5762"
       x2="1558.1562"
       y2="-1759.5762"
       gradientTransform="matrix(1 0 0 -1 -1510.5 -1735)"><stop
         offset="0"
         style="stop-color:#FFFFFF"
         id="stop17" /><stop
         offset="1"
         style="stop-color:#FFFFFF;stop-opacity:0"
         id="stop19" /></linearGradient><path
       fill="url(#SVGID_2_)"
       d="M2.218,34.563c0,4.971,4.029,9,9,9h27.438c4.971,0,9-4.029,9-9V14.589c0-4.971-4.029-9-9-9H11.218   c-4.971,0-9,4.029-9,9V34.563z"
       id="path21" /></g><rect
     x="9.1129999"
     y="11.584"
     width="15.887"
     height="5.6759152"
     id="rect23"
     style="fill:#1e1c19;fill-opacity:1" /></svg>