<?xml version="1.0" encoding="utf-8"?>
<!-- Generator: Adobe Illustrator 14.0.0, SVG Export Plug-In . SVG Version: 6.00 Build 43363)  -->
<!DOCTYPE svg PUBLIC "-//W3C//DTD SVG 1.1//EN" "http://www.w3.org/Graphics/SVG/1.1/DTD/svg11.dtd">
<svg version="1.1" id="Layer_1" xmlns="http://www.w3.org/2000/svg" xmlns:xlink="http://www.w3.org/1999/xlink" x="0px" y="0px"
	 width="50px" height="50px" viewBox="0 0 50 50" enable-background="new 0 0 50 50" xml:space="preserve">
<linearGradient id="SVGID_1_" gradientUnits="userSpaceOnUse" x1="960.8691" y1="-1013.6416" x2="986.4681" y2="-1023.382" gradientTransform="matrix(1 0 0 -1 -948.5 -993)">
	<stop  offset="0" style="stop-color:#67A8DC"/>
	<stop  offset="1" style="stop-color:#3E86C6"/>
</linearGradient>
<path fill="url(#SVGID_1_)" stroke="#1089F7" stroke-width="3" d="M48.437,29.888c0,6.001-3.132,10.87-9.133,10.87H10.847
	c-6.001,0-9.284-4.867-9.284-10.87v-8.83c0-6.002,3.282-10.869,9.284-10.869h28.455c6,0,9.131,4.866,9.131,10.869v8.83H48.437z"/>
<linearGradient id="SVGID_2_" gradientUnits="userSpaceOnUse" x1="950.4004" y1="-1009.8086" x2="974.3711" y2="-1018.9294" gradientTransform="matrix(1 0 0 -1 -948.5 -993)">
	<stop  offset="0" style="stop-color:#FFFFFF"/>
	<stop  offset="1" style="stop-color:#FFFFFF;stop-opacity:0"/>
</linearGradient>
<path opacity="0.4" fill="url(#SVGID_2_)" enable-background="new    " d="M47.042,29.638c0,5.463-2.944,9.893-8.59,9.893H11.689
	c-5.645,0-8.731-4.43-8.731-9.893v-8.035c0-5.461,3.086-9.889,8.731-9.889h26.763c5.646,0,8.59,4.429,8.59,9.889V29.638z"/>
<rect x="11.832" y="19.243" fill="#47423B" width="27.843" height="3.256"/>
</svg>
