<?xml version="1.0" encoding="utf-8"?>
<!-- Generator: Adobe Illustrator 14.0.0, SVG Export Plug-In . SVG Version: 6.00 Build 43363)  -->
<!DOCTYPE svg PUBLIC "-//W3C//DTD SVG 1.1//EN" "http://www.w3.org/Graphics/SVG/1.1/DTD/svg11.dtd">
<svg version="1.1" id="Layer_1" xmlns="http://www.w3.org/2000/svg" xmlns:xlink="http://www.w3.org/1999/xlink" x="0px" y="0px"
	 width="50px" height="50px" viewBox="0 0 50 50" enable-background="new 0 0 50 50" xml:space="preserve">
<linearGradient id="SVGID_1_" gradientUnits="userSpaceOnUse" x1="868.9111" y1="-1089.4155" x2="896.7592" y2="-1117.2634" gradientTransform="matrix(1 0 0 -1 -859 -1079)">
	<stop  offset="0" style="stop-color:#67A8DC"/>
	<stop  offset="1" style="stop-color:#3E86C6"/>
</linearGradient>
<rect x="3.777" y="11.96" fill="url(#SVGID_1_)" stroke="#1089F7" stroke-width="2" width="42.915" height="27.558"/>
<rect x="11.179" y="32.84" fill="#47423B" width="28.525" height="3.336"/>
<polygon points="9.891,25.664 4.45,20.992 9.891,16.319 11.95,14.55 11.95,11.646 6.513,16.319 1.073,20.992 6.513,25.664 
	11.95,30.334 11.95,27.434 "/>
<polygon points="40.059,25.664 45.531,20.992 40.059,16.318 37.988,14.549 37.988,11.646 43.457,16.318 48.928,20.992 
	43.457,25.664 37.988,30.334 37.988,27.434 "/>
<g enable-background="new    ">
	<path d="M20.428,23.057l2.943,0.934c-0.451,1.641-1.202,2.858-2.251,3.655c-1.049,0.797-2.38,1.193-3.994,1.193
		c-1.996,0-3.637-0.682-4.922-2.045c-1.285-1.364-1.928-3.229-1.928-5.594c0-2.502,0.646-4.445,1.938-5.829
		c1.292-1.385,2.991-2.077,5.096-2.077c1.839,0,3.333,0.544,4.481,1.631c0.684,0.643,1.196,1.565,1.538,2.769l-3.004,0.718
		c-0.178-0.779-0.548-1.395-1.113-1.846c-0.563-0.451-1.249-0.677-2.056-0.677c-1.114,0-2.019,0.399-2.712,1.2
		c-0.694,0.799-1.041,2.095-1.041,3.886c0,1.9,0.342,3.254,1.025,4.061c0.683,0.807,1.572,1.21,2.666,1.21
		c0.807,0,1.5-0.256,2.082-0.77C19.758,24.965,20.175,24.158,20.428,23.057z"/>
	<path d="M25.986,13.552h6.008c1.189,0,2.076,0.05,2.662,0.148c0.583,0.1,1.105,0.307,1.566,0.62
		c0.463,0.315,0.848,0.733,1.154,1.257c0.309,0.522,0.461,1.109,0.461,1.759c0,0.704-0.189,1.35-0.568,1.938
		s-0.895,1.029-1.543,1.322c0.916,0.268,1.619,0.722,2.111,1.364s0.738,1.398,0.738,2.267c0,0.684-0.158,1.348-0.477,1.994
		c-0.318,0.646-0.752,1.162-1.304,1.549c-0.549,0.387-1.229,0.623-2.034,0.713c-0.506,0.055-1.727,0.088-3.66,0.103h-5.117V13.552
		H25.986z M29.021,16.054v3.476h1.987c1.185,0,1.918-0.017,2.205-0.051c0.521-0.062,0.929-0.241,1.226-0.538
		c0.299-0.298,0.445-0.688,0.445-1.175c0-0.464-0.128-0.842-0.384-1.133c-0.256-0.29-0.638-0.467-1.144-0.527
		c-0.301-0.034-1.166-0.052-2.596-0.052H29.021z M29.021,22.031v4.02h2.809c1.094,0,1.788-0.029,2.082-0.092
		c0.451-0.082,0.818-0.282,1.104-0.6c0.282-0.318,0.426-0.744,0.426-1.277c0-0.451-0.109-0.833-0.328-1.148
		c-0.219-0.313-0.536-0.543-0.948-0.687c-0.414-0.144-1.312-0.216-2.692-0.216H29.021z"/>
</g>
</svg>
