<?xml version="1.0" encoding="utf-8"?>
<!-- Generator: Adobe Illustrator 14.0.0, SVG Export Plug-In . SVG Version: 6.00 Build 43363)  -->
<!DOCTYPE svg PUBLIC "-//W3C//DTD SVG 1.1//EN" "http://www.w3.org/Graphics/SVG/1.1/DTD/svg11.dtd">
<svg version="1.1" id="Layer_1" xmlns="http://www.w3.org/2000/svg" xmlns:xlink="http://www.w3.org/1999/xlink" x="0px" y="0px"
	 width="50px" height="50px" viewBox="0 0 50 50" enable-background="new 0 0 50 50" xml:space="preserve">
<g>
	
		<linearGradient id="SVGID_1_" gradientUnits="userSpaceOnUse" x1="2387.168" y1="2925.5762" x2="2433.834" y2="2925.5762" gradientTransform="matrix(1 0 0 1 -2385.5 -2898)">
		<stop  offset="0" style="stop-color:#68A7DB"/>
		<stop  offset="1" style="stop-color:#3E86C7"/>
	</linearGradient>
	<path fill="url(#SVGID_1_)" d="M1.668,37.562c0,4.972,4.029,9,9,9h28.666c4.971,0,9-4.028,9-9V17.589c0-4.971-4.029-9-9-9H10.668
		c-4.971,0-9,4.029-9,9V37.562z"/>
	<path fill="none" stroke="#000000" stroke-width="3" stroke-dasharray="5,5,5,5,5,5" d="M1.668,37.562c0,4.972,4.029,9,9,9h28.666
		c4.971,0,9-4.028,9-9V17.589c0-4.971-4.029-9-9-9H10.668c-4.971,0-9,4.029-9,9V37.562z"/>
</g>
<line fill="none" stroke="#2F3134" stroke-width="2" stroke-dasharray="5,5,5,5,5,5" x1="11.384" y1="14.125" x2="37.467" y2="14.125"/>
<g enable-background="new    ">
	<path d="M32.055,33.389l2.842,0.719c-0.596,2.334-1.668,4.113-3.215,5.338c-1.549,1.229-3.438,1.843-5.677,1.843
		c-2.314,0-4.197-0.474-5.647-1.413c-1.45-0.939-2.554-2.311-3.311-4.098c-0.757-1.784-1.135-3.707-1.135-5.758
		c0-2.232,0.427-4.187,1.282-5.852s2.07-2.93,3.647-3.795c1.577-0.863,3.313-1.296,5.208-1.296c2.148,0,3.955,0.547,5.42,1.641
		c1.465,1.094,2.485,2.632,3.062,4.614l-2.799,0.659c-0.498-1.562-1.223-2.7-2.168-3.413c-0.946-0.713-2.142-1.069-3.573-1.069
		c-1.65,0-3.03,0.396-4.138,1.187s-1.887,1.854-2.336,3.186c-0.449,1.334-0.674,2.708-0.674,4.124c0,1.826,0.266,3.421,0.798,4.782
		c0.532,1.362,1.36,2.381,2.483,3.055c1.123,0.675,2.339,1.011,3.647,1.011c1.592,0,2.938-0.459,4.043-1.377
		C30.918,36.559,31.664,35.195,32.055,33.389z"/>
</g>
</svg>
