<?xml version="1.0" encoding="utf-8"?>
<!-- Generator: Adobe Illustrator 14.0.0, SVG Export Plug-In . SVG Version: 6.00 Build 43363)  -->
<!DOCTYPE svg PUBLIC "-//W3C//DTD SVG 1.1//EN" "http://www.w3.org/Graphics/SVG/1.1/DTD/svg11.dtd">
<svg version="1.1" id="Layer_1" xmlns="http://www.w3.org/2000/svg" xmlns:xlink="http://www.w3.org/1999/xlink" x="0px" y="0px"
	 width="50px" height="50px" viewBox="0 0 50 50" enable-background="new 0 0 50 50" xml:space="preserve">
<linearGradient id="SVGID_1_" gradientUnits="userSpaceOnUse" x1="868.9111" y1="-1089.4155" x2="896.7592" y2="-1117.2634" gradientTransform="matrix(1 0 0 -1 -859 -1079)">
	<stop  offset="0" style="stop-color:#67A8DC"/>
	<stop  offset="1" style="stop-color:#3E86C6"/>
</linearGradient>
<rect x="3.777" y="11.96" fill="url(#SVGID_1_)" stroke="#1089F7" stroke-width="2" width="42.915" height="27.558"/>
<rect x="11.179" y="32.84" fill="#47423B" width="28.525" height="3.336"/>
<polygon points="9.891,25.664 4.45,20.992 9.891,16.319 11.95,14.55 11.95,11.646 6.513,16.319 1.073,20.992 6.513,25.664 
	11.95,30.334 11.95,27.434 "/>
<polygon points="40.059,25.664 45.531,20.992 40.059,16.318 37.988,14.549 37.988,11.646 43.457,16.318 48.928,20.992 
	43.457,25.664 37.988,30.334 37.988,27.434 "/>
<g enable-background="new    ">
	<path d="M24.195,28.584h-2.676v-1.6c-0.444,0.621-0.969,1.084-1.574,1.39c-0.604,0.304-1.215,0.456-1.83,0.456
		c-1.251,0-2.322-0.504-3.215-1.514c-0.892-1.008-1.338-2.415-1.338-4.219c0-1.846,0.434-3.248,1.302-4.209
		c0.868-0.96,1.965-1.44,3.292-1.44c1.217,0,2.27,0.506,3.158,1.518v-5.414h2.881V28.584z M16.504,22.903
		c0,1.162,0.161,2.003,0.482,2.522c0.465,0.752,1.114,1.128,1.948,1.128c0.663,0,1.227-0.281,1.692-0.846
		c0.465-0.564,0.697-1.406,0.697-2.528c0-1.25-0.226-2.151-0.677-2.701c-0.451-0.551-1.029-0.826-1.733-0.826
		c-0.684,0-1.256,0.272-1.718,0.815C16.735,21.012,16.504,21.823,16.504,22.903z"/>
	<path d="M29.188,21.017l-2.613-0.472c0.293-1.053,0.799-1.832,1.518-2.338c0.717-0.506,1.783-0.759,3.199-0.759
		c1.285,0,2.242,0.152,2.871,0.456c0.629,0.305,1.07,0.69,1.328,1.159c0.256,0.468,0.384,1.327,0.384,2.579l-0.03,3.363
		c0,0.957,0.045,1.662,0.139,2.117c0.093,0.454,0.265,0.94,0.519,1.461h-2.853c-0.073-0.19-0.166-0.476-0.275-0.853
		c-0.048-0.17-0.082-0.282-0.104-0.338c-0.492,0.479-1.019,0.838-1.578,1.076c-0.562,0.239-1.159,0.359-1.795,0.359
		c-1.121,0-2.006-0.305-2.649-0.912c-0.646-0.607-0.97-1.378-0.97-2.309c0-0.614,0.146-1.164,0.439-1.646
		c0.295-0.482,0.706-0.852,1.236-1.107c0.529-0.257,1.293-0.48,2.291-0.672c1.348-0.253,2.279-0.488,2.8-0.707v-0.287
		c0-0.555-0.137-0.949-0.41-1.185c-0.272-0.236-0.79-0.354-1.548-0.354c-0.514,0-0.913,0.102-1.2,0.303
		C29.6,20.157,29.366,20.511,29.188,21.017z M33.044,23.354c-0.369,0.123-0.954,0.271-1.753,0.44
		c-0.801,0.172-1.323,0.339-1.568,0.503c-0.377,0.267-0.563,0.604-0.563,1.015c0,0.404,0.149,0.752,0.45,1.047
		c0.302,0.293,0.685,0.439,1.148,0.439c0.52,0,1.016-0.171,1.486-0.513c0.349-0.261,0.578-0.577,0.688-0.953
		c0.074-0.246,0.112-0.715,0.112-1.405V23.354z"/>
</g>
</svg>
