<?xml version="1.0" encoding="UTF-8" standalone="no"?>
<svg
   xmlns:dc="http://purl.org/dc/elements/1.1/"
   xmlns:cc="http://creativecommons.org/ns#"
   xmlns:rdf="http://www.w3.org/1999/02/22-rdf-syntax-ns#"
   xmlns:svg="http://www.w3.org/2000/svg"
   xmlns="http://www.w3.org/2000/svg"
   xmlns:sodipodi="http://sodipodi.sourceforge.net/DTD/sodipodi-0.dtd"
   xmlns:inkscape="http://www.inkscape.org/namespaces/inkscape"
   version="1.1"
   id="svg2"
   height="18"
   width="18"
   inkscape:version="0.91 r13725"
   sodipodi:docname="DecisionNode.svg">
  <sodipodi:namedview
     pagecolor="#ffffff"
     bordercolor="#666666"
     borderopacity="1"
     objecttolerance="10"
     gridtolerance="10"
     guidetolerance="10"
     inkscape:pageopacity="0"
     inkscape:pageshadow="2"
     inkscape:window-width="1656"
     inkscape:window-height="1020"
     id="namedview9"
     showgrid="false"
     inkscape:zoom="34.055556"
     inkscape:cx="-2.2169656"
     inkscape:cy="9"
     inkscape:window-x="2463"
     inkscape:window-y="225"
     inkscape:window-maximized="0"
     inkscape:current-layer="svg2" />
  <defs
     id="defs16" />
  <metadata
     id="metadata7">
    <rdf:RDF>
      <cc:Work
         rdf:about="">
        <dc:format>image/svg+xml</dc:format>
        <dc:type
           rdf:resource="http://purl.org/dc/dcmitype/StillImage" />
        <dc:title />
      </cc:Work>
    </rdf:RDF>
  </metadata>
  <rect
     transform="matrix(0.70710679,0.70710677,-0.70710679,0.70710677,0,0)"
     y="-3.1820557"
     x="11.667337"
     height="4.242641"
     width="4.242641"
     id="rect4147"
     style="fill:#86caf2;fill-opacity:1;stroke:#2364cd;stroke-width:0.5;stroke-miterlimit:4;stroke-dasharray:none;stroke-opacity:1" />
  <path
     inkscape:connector-curvature="0"
     id="path1316-9-3"
     d="m 15.513866,16.54134 2.091653,-2.495184 -2.099766,-2.495572 -1.163363,5.97e-4 1.607484,1.930016 -3.332655,7.37e-4 9.99e-4,1.109992 3.353559,2.35e-4 -1.624767,1.949256 1.166823,0 z"
     style="font-size:12px;fill-rule:evenodd;stroke:#000000;stroke-width:0.00916694" />
  <path
     inkscape:connector-curvature="0"
     id="path1316-9-3-2"
     d="m 15.553511,6.1070852 2.091653,-2.495184 -2.099766,-2.495572 -1.163363,5.97e-4 1.607484,1.930016 -3.332655,7.37e-4 9.99e-4,1.109992 3.353559,2.35e-4 -1.624767,1.949256 1.166823,0 z"
     style="font-size:12px;fill-rule:evenodd;stroke:#000000;stroke-width:0.00916694" />
  <path
     inkscape:connector-curvature="0"
     id="path1316-9-3-28"
     d="m 3.5143593,11.539386 2.091653,-2.4951843 -2.099766,-2.495572 -1.163363,5.97e-4 1.607484,1.930016 -3.33265504,7.37e-4 9.99e-4,1.109992 3.35355904,2.35e-4 -1.624767,1.9492563 1.166823,0 z"
     style="font-size:12px;fill-rule:evenodd;stroke:#000000;stroke-width:0.00916694" />
</svg>
