<?xml version="1.0" encoding="utf-8"?>
<!-- Generator: Adobe Illustrator 14.0.0, SVG Export Plug-In . SVG Version: 6.00 Build 43363)  -->
<!DOCTYPE svg PUBLIC "-//W3C//DTD SVG 1.1//EN" "http://www.w3.org/Graphics/SVG/1.1/DTD/svg11.dtd">
<svg version="1.1" id="Layer_1" xmlns="http://www.w3.org/2000/svg" xmlns:xlink="http://www.w3.org/1999/xlink" x="0px" y="0px"
	 width="50px" height="50px" viewBox="0 0 50 50" enable-background="new 0 0 50 50" xml:space="preserve">
<line fill="none" stroke="#2F3134" stroke-width="2" stroke-dasharray="5,5,5,5,5,5" x1="11.384" y1="13.125" x2="37.467" y2="13.125"/>
<g>
	
		<linearGradient id="SVGID_1_" gradientUnits="userSpaceOnUse" x1="2106.168" y1="-2503.5757" x2="2152.834" y2="-2503.5757" gradientTransform="matrix(1 0 0 -1 -2104.5 -2477)">
		<stop  offset="0" style="stop-color:#68A7DB"/>
		<stop  offset="1" style="stop-color:#3E86C7"/>
	</linearGradient>
	<path fill="url(#SVGID_1_)" d="M1.668,36.562c0,4.972,4.029,9,9,9h28.666c4.971,0,9-4.028,9-9V16.589c0-4.971-4.029-9-9-9H10.668
		c-4.971,0-9,4.029-9,9V36.562z"/>
	<path fill="none" stroke="#000000" stroke-width="3" stroke-dasharray="5,5,5,5,5,5" d="M1.668,36.562c0,4.972,4.029,9,9,9h28.666
		c4.971,0,9-4.028,9-9V16.589c0-4.971-4.029-9-9-9H10.668c-4.971,0-9,4.029-9,9V36.562z"/>
</g>
<g enable-background="new    ">
	<path d="M19.365,39.543V18.068h2.842v18.94h10.576v2.534L19.365,39.543L19.365,39.543z"/>
</g>
<line fill="none" stroke="#2F3134" stroke-width="2" stroke-dasharray="5,5,5,5,5,5" x1="11.384" y1="14.125" x2="37.467" y2="14.125"/>
</svg>
