<?xml version="1.0" encoding="utf-8"?>
<!-- Generator: Adobe Illustrator 14.0.0, SVG Export Plug-In . SVG Version: 6.00 Build 43363)  -->
<!DOCTYPE svg PUBLIC "-//W3C//DTD SVG 1.1//EN" "http://www.w3.org/Graphics/SVG/1.1/DTD/svg11.dtd">
<svg version="1.1" id="Layer_1" xmlns="http://www.w3.org/2000/svg" xmlns:xlink="http://www.w3.org/1999/xlink" x="0px" y="0px"
	 width="50px" height="50px" viewBox="0 0 50 50" enable-background="new 0 0 50 50" xml:space="preserve">
<line fill="none" stroke="#2F3134" stroke-width="2" stroke-dasharray="5,5,5,5,5,5" x1="11.384" y1="14.125" x2="37.467" y2="14.125"/>
<g>
	
		<linearGradient id="SVGID_1_" gradientUnits="userSpaceOnUse" x1="2106.168" y1="-2504.5757" x2="2152.834" y2="-2504.5757" gradientTransform="matrix(1 0 0 -1 -2104.5 -2477)">
		<stop  offset="0" style="stop-color:#68A7DB"/>
		<stop  offset="1" style="stop-color:#3E86C7"/>
	</linearGradient>
	<path fill="url(#SVGID_1_)" d="M1.668,37.562c0,4.972,4.029,9,9,9h28.666c4.971,0,9-4.028,9-9V17.589c0-4.971-4.029-9-9-9H10.668
		c-4.971,0-9,4.029-9,9V37.562z"/>
	<path fill="none" stroke="#000000" stroke-width="3" stroke-dasharray="5,5,5,5,5,5" d="M1.668,37.562c0,4.972,4.029,9,9,9h28.666
		c4.971,0,9-4.028,9-9V17.589c0-4.971-4.029-9-9-9H10.668c-4.971,0-9,4.029-9,9V37.562z"/>
</g>
<g enable-background="new    ">
	<path d="M16.141,32.52l2.681-0.232c0.127,1.072,0.422,1.956,0.886,2.646c0.464,0.688,1.184,1.243,2.161,1.67
		c0.977,0.426,2.075,0.637,3.296,0.637c1.084,0,2.041-0.16,2.871-0.482s1.446-0.764,1.854-1.326
		c0.401-0.561,0.604-1.174,0.604-1.838c0-0.674-0.195-1.262-0.586-1.766c-0.394-0.502-1.035-0.926-1.937-1.268
		c-0.576-0.227-1.851-0.572-3.823-1.05c-1.973-0.473-3.354-0.92-4.146-1.34c-1.025-0.537-1.79-1.203-2.292-2
		c-0.503-0.795-0.754-1.687-0.754-2.673c0-1.084,0.308-2.097,0.923-3.04c0.615-0.941,1.514-1.657,2.695-2.146
		c1.181-0.489,2.495-0.732,3.94-0.732c1.591,0,2.996,0.257,4.21,0.769c1.217,0.514,2.149,1.268,2.807,2.264
		c0.654,0.996,1.006,2.124,1.055,3.384L29.867,24.2c-0.146-1.357-0.643-2.383-1.487-3.076c-0.844-0.693-2.092-1.04-3.742-1.04
		c-1.719,0-2.971,0.314-3.757,0.945c-0.786,0.629-1.179,1.389-1.179,2.277c0,0.771,0.278,1.406,0.835,1.904
		c0.547,0.498,1.975,1.009,4.285,1.531c2.309,0.522,3.894,0.979,4.753,1.368c1.25,0.576,2.173,1.308,2.769,2.188
		c0.596,0.887,0.896,1.902,0.896,3.057c0,1.144-0.327,2.22-0.981,3.229c-0.651,1.01-1.594,1.797-2.817,2.355
		c-1.228,0.562-2.604,0.845-4.141,0.845c-1.943,0-3.572-0.283-4.885-0.853c-1.313-0.564-2.344-1.418-3.091-2.556
		C16.576,35.24,16.18,33.954,16.141,32.52z"/>
</g>
<line fill="none" stroke="#2F3134" stroke-width="2" stroke-dasharray="5,5,5,5,5,5" x1="11.384" y1="14.125" x2="37.467" y2="14.125"/>
</svg>
