<?xml version="1.0" encoding="utf-8"?>
<!-- Generator: Adobe Illustrator 14.0.0, SVG Export Plug-In . SVG Version: 6.00 Build 43363)  -->
<!DOCTYPE svg PUBLIC "-//W3C//DTD SVG 1.1//EN" "http://www.w3.org/Graphics/SVG/1.1/DTD/svg11.dtd">
<svg version="1.1" id="Layer_1" xmlns="http://www.w3.org/2000/svg" xmlns:xlink="http://www.w3.org/1999/xlink" x="0px" y="0px"
	 width="50px" height="50px" viewBox="0 0 50 50" enable-background="new 0 0 50 50" xml:space="preserve">
<line fill="none" stroke="#2F3134" stroke-width="2" stroke-dasharray="5,5,5,5,5,5" x1="11.384" y1="13.125" x2="37.467" y2="13.125"/>
<g>
	
		<linearGradient id="SVGID_1_" gradientUnits="userSpaceOnUse" x1="2106.168" y1="-2503.5757" x2="2152.834" y2="-2503.5757" gradientTransform="matrix(1 0 0 -1 -2104.5 -2477)">
		<stop  offset="0" style="stop-color:#68A7DB"/>
		<stop  offset="1" style="stop-color:#3E86C7"/>
	</linearGradient>
	<path fill="url(#SVGID_1_)" d="M1.668,36.562c0,4.972,4.029,9,9,9h28.666c4.971,0,9-4.028,9-9V16.589c0-4.971-4.029-9-9-9H10.668
		c-4.971,0-9,4.029-9,9V36.562z"/>
	<path fill="none" stroke="#000000" stroke-width="3" stroke-dasharray="5,5,5,5,5,5" d="M1.668,36.562c0,4.972,4.029,9,9,9h28.666
		c4.971,0,9-4.028,9-9V16.589c0-4.971-4.029-9-9-9H10.668c-4.971,0-9,4.029-9,9V36.562z"/>
</g>
<g enable-background="new    ">
	<path d="M14.374,39.543l8.247-21.475h3.062l8.789,21.475h-3.238l-2.504-6.504h-8.98l-2.358,6.504H14.374z M20.57,30.725h7.28
		l-2.24-5.947c-0.685-1.807-1.189-3.291-1.521-4.453c-0.273,1.377-0.659,2.744-1.157,4.102L20.57,30.725z"/>
</g>
<line fill="none" stroke="#2F3134" stroke-width="2" stroke-dasharray="5,5,5,5,5,5" x1="11.384" y1="14.125" x2="37.467" y2="14.125"/>
</svg>
