<?xml version="1.0" encoding="utf-8"?>
<!-- Generator: Adobe Illustrator 14.0.0, SVG Export Plug-In . SVG Version: 6.00 Build 43363)  -->
<!DOCTYPE svg PUBLIC "-//W3C//DTD SVG 1.1//EN" "http://www.w3.org/Graphics/SVG/1.1/DTD/svg11.dtd">
<svg version="1.1" id="Layer_1" xmlns="http://www.w3.org/2000/svg" xmlns:xlink="http://www.w3.org/1999/xlink" x="0px" y="0px"
	 width="18px" height="18px" viewBox="15 35 18 18" enable-background="new 15 35 18 18" xml:space="preserve">
<line fill="none" stroke="#010101" stroke-dasharray="2,2,2,2,2,2" x1="33" y1="47" x2="15" y2="47"/>
<path fill="#010101" d="M19,42.059v-1.124c0.215-0.015,0.377-0.045,0.488-0.104c0.109-0.054,0.202-0.149,0.281-0.281
	c0.08-0.133,0.135-0.3,0.167-0.499c0.022-0.151,0.032-0.411,0.032-0.781c0-0.605,0.03-1.028,0.08-1.266
	c0.056-0.238,0.149-0.434,0.29-0.576c0.139-0.145,0.338-0.262,0.605-0.346C21.123,37.027,21.407,37,21.791,37h0.234v1.117
	c-0.326,0-0.537,0.019-0.629,0.057c-0.093,0.041-0.163,0.098-0.207,0.177c-0.044,0.083-0.066,0.219-0.066,0.412
	c0,0.195-0.013,0.571-0.04,1.12c-0.017,0.31-0.053,0.558-0.114,0.752c-0.062,0.192-0.141,0.351-0.237,0.474
	c-0.096,0.125-0.242,0.251-0.44,0.389c0.176,0.104,0.317,0.229,0.427,0.372c0.109,0.141,0.193,0.314,0.254,0.517
	c0.058,0.202,0.098,0.475,0.115,0.816c0.021,0.519,0.031,0.846,0.031,0.987c0,0.21,0.025,0.352,0.07,0.434
	c0.047,0.082,0.119,0.145,0.215,0.188c0.096,0.041,0.303,0.062,0.621,0.062v1.123h-0.234c-0.399,0-0.703-0.033-0.917-0.098
	c-0.211-0.076-0.388-0.182-0.537-0.334c-0.142-0.158-0.242-0.35-0.294-0.58c-0.048-0.229-0.075-0.593-0.075-1.082
	c0-0.577-0.022-0.953-0.07-1.123c-0.063-0.248-0.16-0.428-0.292-0.536C19.474,42.133,19.272,42.076,19,42.059z"/>
<path fill="#010101" d="M29.024,42.062c-0.219,0.013-0.379,0.046-0.485,0.105c-0.111,0.054-0.207,0.149-0.281,0.28
	c-0.078,0.134-0.137,0.301-0.166,0.501c-0.025,0.146-0.041,0.404-0.041,0.776c0,0.6-0.02,1.028-0.073,1.268
	c-0.053,0.241-0.147,0.43-0.282,0.578c-0.141,0.143-0.342,0.256-0.613,0.344C26.904,45.973,26.617,46,26.236,46H26v-1.127
	c0.311,0,0.52-0.022,0.617-0.059c0.098-0.044,0.167-0.105,0.217-0.188c0.046-0.076,0.07-0.215,0.07-0.404
	c0.001-0.188,0.012-0.551,0.037-1.087c0.017-0.327,0.053-0.588,0.121-0.781c0.062-0.194,0.15-0.361,0.256-0.499
	c0.107-0.134,0.246-0.251,0.413-0.355c-0.218-0.149-0.377-0.297-0.476-0.438c-0.139-0.208-0.235-0.47-0.281-0.786
	c-0.034-0.22-0.06-0.7-0.076-1.443c-0.001-0.236-0.019-0.391-0.061-0.468c-0.035-0.08-0.1-0.138-0.196-0.181
	c-0.096-0.043-0.313-0.062-0.642-0.062V37h0.236c0.396,0,0.697,0.032,0.914,0.098c0.212,0.065,0.389,0.179,0.531,0.337
	c0.147,0.158,0.243,0.348,0.296,0.58c0.054,0.229,0.073,0.59,0.073,1.085c0,0.571,0.025,0.942,0.069,1.117
	c0.067,0.252,0.165,0.43,0.298,0.536c0.132,0.109,0.335,0.168,0.606,0.186V42.062L29.024,42.062z"/>
</svg>
